<svg xmlns="http://www.w3.org/2000/svg" xmlns:xlink="http://www.w3.org/1999/xlink" width="150" viewBox="0 0 150 30" height="30" version="1.0"><defs><clipPath id="b"><path d="M 136 9 L 147.578125 9 L 147.578125 23 L 136 23 Z M 136 9"/></clipPath><clipPath id="e"><path d="M 0.195312 1 L 26.671875 1 L 26.671875 9.800781 L 0.195312 9.800781 Z M 0.195312 1"/></clipPath><clipPath id="d"><path d="M0 0H27V10H0z"/></clipPath><clipPath id="f"><path d="M 2.417969 20 L 31 20 L 31 29 L 2.417969 29 Z M 2.417969 20"/></clipPath><clipPath id="i"><path d="M 0.675781 1 L 23.671875 1 L 23.671875 9.8125 L 0.675781 9.8125 Z M 0.675781 1"/></clipPath><clipPath id="h"><path d="M0 0H24V10H0z"/></clipPath><clipPath id="j"><path d="M 2.417969 10 L 26 10 L 26 19 L 2.417969 19 Z M 2.417969 10"/></clipPath><clipPath id="m"><path d="M 0.785156 0 L 18.671875 0 L 18.671875 9 L 0.785156 9 Z M 0.785156 0"/></clipPath><clipPath id="l"><path d="M0 0H19V10H0z"/></clipPath><clipPath id="n"><path d="M 2.417969 0 L 36 0 L 36 9 L 2.417969 9 Z M 2.417969 0"/></clipPath><mask id="c"><g filter="url(#a)"><path fill-opacity=".647" d="M-15 -3H165V33H-15z"/></g></mask><mask id="g"><g filter="url(#a)"><path fill-opacity=".647" d="M-15 -3H165V33H-15z"/></g></mask><mask id="k"><g filter="url(#a)"><path fill-opacity=".647" d="M-15 -3H165V33H-15z"/></g></mask><filter x="0%" y="0%" width="100%" xmlns:xlink="http://www.w3.org/1999/xlink" xlink:type="simple" xlink:actuate="onLoad" height="100%" id="a" xlink:show="other"><feColorMatrix values="0 0 0 0 1 0 0 0 0 1 0 0 0 0 1 0 0 0 1 0" color-interpolation-filters="sRGB"/></filter></defs><g fill="#382D8B"><g><g><path d="M 7.246094 0.257812 C 9.40625 0.257812 11.121094 -0.5 12.523438 -2.058594 L 10.359375 -3.949219 C 9.460938 -2.945312 8.429688 -2.585938 7.269531 -2.585938 C 5.25 -2.585938 4.324219 -3.71875 4.054688 -5.40625 L 12.882812 -5.40625 C 12.945312 -5.585938 13 -6.113281 13 -6.640625 C 13 -9.511719 11.542969 -13.128906 7.039062 -13.128906 C 2.691406 -13.128906 0.734375 -9.730469 0.734375 -6.382812 C 0.734375 -2.921875 2.820312 0.257812 7.246094 0.257812 Z M 4.054688 -7.671875 C 4.351562 -9.277344 5.160156 -10.488281 7.015625 -10.488281 C 8.378906 -10.488281 9.484375 -9.808594 9.808594 -8.480469 C 9.882812 -8.222656 9.910156 -7.953125 9.910156 -7.671875 Z M 4.054688 -7.671875" transform="translate(46.183 22.448)"/></g></g></g><g fill="#382D8B"><g><g><path d="M 4.480469 0.257812 C 5.226562 0.257812 6.164062 0.128906 6.820312 0 L 6.820312 -2.636719 C 6.488281 -2.585938 6.140625 -2.5625 5.957031 -2.5625 C 5.328125 -2.5625 4.929688 -2.820312 4.929688 -3.421875 L 4.929688 -18.183594 L 1.789062 -18.183594 L 1.789062 -2.5625 C 1.789062 -0.296875 3 0.257812 4.480469 0.257812 Z M 4.480469 0.257812" transform="translate(59.149 22.448)"/></g></g></g><g fill="#382D8B"><g><g><path d="M 7.246094 0.257812 C 9.40625 0.257812 11.121094 -0.5 12.523438 -2.058594 L 10.359375 -3.949219 C 9.460938 -2.945312 8.429688 -2.585938 7.269531 -2.585938 C 5.25 -2.585938 4.324219 -3.71875 4.054688 -5.40625 L 12.882812 -5.40625 C 12.945312 -5.585938 13 -6.113281 13 -6.640625 C 13 -9.511719 11.542969 -13.128906 7.039062 -13.128906 C 2.691406 -13.128906 0.734375 -9.730469 0.734375 -6.382812 C 0.734375 -2.921875 2.820312 0.257812 7.246094 0.257812 Z M 4.054688 -7.671875 C 4.351562 -9.277344 5.160156 -10.488281 7.015625 -10.488281 C 8.378906 -10.488281 9.484375 -9.808594 9.808594 -8.480469 C 9.882812 -8.222656 9.910156 -7.953125 9.910156 -7.671875 Z M 4.054688 -7.671875" transform="translate(65.732 22.448)"/></g></g></g><g fill="#382D8B"><g><g><path d="M 1.890625 0 L 5.03125 0 L 5.03125 -7.066406 C 5.03125 -8.777344 6.035156 -10.207031 7.746094 -10.207031 C 9.355469 -10.207031 9.832031 -8.929688 9.832031 -7.375 L 9.832031 0 L 12.972656 0 L 12.972656 -7.066406 C 12.972656 -8.777344 13.964844 -10.207031 15.664062 -10.207031 C 17.285156 -10.207031 17.761719 -8.90625 17.761719 -7.324219 L 17.761719 0 L 20.902344 0 L 20.902344 -7.722656 C 20.902344 -10.4375 19.5625 -13.128906 16.292969 -13.128906 C 14.734375 -13.128906 13.203125 -12.523438 12.175781 -10.863281 C 11.414062 -12.574219 9.832031 -13.128906 8.378906 -13.128906 C 7.066406 -13.128906 5.738281 -12.675781 4.902344 -11.25 L 4.902344 -12.855469 L 1.867188 -12.855469 Z M 1.890625 0" transform="translate(78.697 22.448)"/></g></g></g><g fill="#382D8B"><g><g><path d="M 7.246094 0.257812 C 9.40625 0.257812 11.121094 -0.5 12.523438 -2.058594 L 10.359375 -3.949219 C 9.460938 -2.945312 8.429688 -2.585938 7.269531 -2.585938 C 5.25 -2.585938 4.324219 -3.71875 4.054688 -5.40625 L 12.882812 -5.40625 C 12.945312 -5.585938 13 -6.113281 13 -6.640625 C 13 -9.511719 11.542969 -13.128906 7.039062 -13.128906 C 2.691406 -13.128906 0.734375 -9.730469 0.734375 -6.382812 C 0.734375 -2.921875 2.820312 0.257812 7.246094 0.257812 Z M 4.054688 -7.671875 C 4.351562 -9.277344 5.160156 -10.488281 7.015625 -10.488281 C 8.378906 -10.488281 9.484375 -9.808594 9.808594 -8.480469 C 9.882812 -8.222656 9.910156 -7.953125 9.910156 -7.671875 Z M 4.054688 -7.671875" transform="translate(100.31 22.448)"/></g></g></g><g fill="#382D8B"><g><g><path d="M 1.867188 0 L 5.007812 0 L 5.007812 -7.039062 C 5.007812 -9.277344 6.113281 -10.230469 7.875 -10.230469 C 9.484375 -10.230469 10.335938 -9.007812 10.335938 -7.324219 L 10.335938 0 L 13.476562 0 L 13.476562 -7.722656 C 13.476562 -10.410156 12.148438 -13.128906 8.777344 -13.128906 C 7.515625 -13.128906 6.035156 -12.625 5.007812 -11.363281 L 5.007812 -12.855469 L 1.867188 -12.855469 Z M 1.867188 0" transform="translate(113.276 22.448)"/></g></g></g><g fill="#382D8B"><g><g><path d="M 6.410156 0.257812 C 7.347656 0.257812 8.273438 0.0507812 8.75 -0.128906 L 8.75 -2.972656 C 8.328125 -2.765625 7.617188 -2.507812 6.960938 -2.507812 C 6.140625 -2.507812 5.535156 -2.871094 5.535156 -4.105469 L 5.535156 -10.230469 L 8.75 -10.230469 L 8.75 -12.855469 L 5.535156 -12.855469 L 5.535156 -18.289062 L 2.445312 -16.046875 L 2.445312 -12.855469 L 0.320312 -12.855469 L 0.320312 -10.230469 L 2.394531 -10.230469 L 2.394531 -3.550781 C 2.394531 -1.210938 3.898438 0.257812 6.410156 0.257812 Z M 6.410156 0.257812" transform="translate(127.451 22.448)"/></g></g></g><g clip-path="url(#b)"><g fill="#382D8B"><g><g><path d="M 5.738281 0.257812 C 8.171875 0.257812 10.757812 -1.054688 10.757812 -4.027344 C 10.757812 -8.75 4.222656 -7.59375 4.222656 -9.535156 C 4.222656 -10.140625 4.851562 -10.644531 5.882812 -10.644531 C 7.269531 -10.644531 7.992188 -9.808594 8.429688 -9.007812 L 10.863281 -10.335938 C 9.882812 -12.070312 8.199219 -13.128906 5.984375 -13.128906 C 3.5 -13.128906 1.210938 -11.839844 1.210938 -9.125 C 1.210938 -4.582031 7.671875 -6.035156 7.671875 -3.875 C 7.671875 -3.191406 7.039062 -2.34375 5.585938 -2.34375 C 3.875 -2.34375 3.191406 -3.527344 2.84375 -4.453125 L 0.347656 -3.347656 C 0.976562 -1.363281 3.039062 0.257812 5.738281 0.257812 Z M 5.738281 0.257812" transform="translate(136.363 22.448)"/></g></g></g></g><g mask="url(#c)"><g><g clip-path="url(#d)" transform="translate(15 19)"><g clip-path="url(#e)"><path fill="#5649B8" d="M 0.25 5.253906 C 0.25 7.554688 2.042969 9.441406 4.289062 9.441406 L 22.671875 9.441406 L 22.671875 9.410156 C 24.832031 9.324219 26.535156 7.496094 26.535156 5.253906 C 26.535156 3.011719 24.800781 1.183594 22.671875 1.097656 L 22.671875 1.066406 L 4.289062 1.066406 C 2.070312 1.066406 0.25 2.953125 0.25 5.253906"/></g></g></g></g><g clip-path="url(#f)"><path fill="#FFF" d="M 30.550781 24.527344 C 30.550781 22.226562 28.734375 20.339844 26.453125 20.339844 L 6.75 20.339844 L 6.75 20.367188 C 4.554688 20.457031 2.824219 22.285156 2.824219 24.527344 C 2.824219 26.765625 4.585938 28.59375 6.75 28.683594 L 6.75 28.710938 L 26.453125 28.710938 C 28.703125 28.710938 30.550781 26.824219 30.550781 24.527344"/></g><g mask="url(#g)"><g><g clip-path="url(#h)" transform="translate(18 9)"><g clip-path="url(#i)"><path fill="#5649B8" d="M 0.882812 5.351562 C 0.882812 7.648438 2.714844 9.535156 5.007812 9.535156 L 19.574219 9.535156 L 19.574219 9.507812 C 21.78125 9.417969 23.527344 7.589844 23.527344 5.351562 C 23.527344 3.109375 21.753906 1.28125 19.574219 1.191406 L 19.574219 1.164062 L 5.007812 1.164062 C 2.742188 1.164062 0.882812 3.050781 0.882812 5.351562"/></g></g></g></g><g clip-path="url(#j)"><path fill="#FFF" d="M 25.46875 14.621094 C 25.46875 12.320312 23.640625 10.433594 21.34375 10.433594 L 6.777344 10.433594 L 6.777344 10.464844 C 4.570312 10.554688 2.828125 12.382812 2.828125 14.621094 C 2.828125 16.863281 4.597656 18.691406 6.777344 18.78125 L 6.777344 18.808594 L 21.34375 18.808594 C 23.609375 18.808594 25.46875 16.921875 25.46875 14.621094"/></g><g mask="url(#k)"><g><g clip-path="url(#l)" transform="translate(23)"><g clip-path="url(#m)"><path fill="#5649B8" d="M 0.957031 4.445312 C 0.957031 6.746094 2.789062 8.632812 5.082031 8.632812 L 14.566406 8.632812 L 14.566406 8.601562 C 16.777344 8.511719 18.519531 6.6875 18.519531 4.445312 C 18.519531 2.207031 16.746094 0.378906 14.566406 0.289062 L 14.566406 0.261719 L 5.082031 0.261719 C 2.816406 0.261719 0.957031 2.144531 0.957031 4.445312"/></g></g></g></g><g clip-path="url(#n)"><path fill="#FFF" d="M 35.636719 4.71875 C 35.636719 2.417969 33.851562 0.53125 31.613281 0.53125 L 6.671875 0.53125 L 6.671875 0.5625 C 4.515625 0.648438 2.816406 2.476562 2.816406 4.71875 C 2.816406 6.957031 4.546875 8.785156 6.671875 8.875 L 6.671875 8.902344 L 31.613281 8.902344 C 33.824219 8.902344 35.636719 7.015625 35.636719 4.71875"/></g></svg>